<mxfile host="Electron" agent="Mozilla/5.0 (Macintosh; Intel Mac OS X 10_15_7) AppleWebKit/537.36 (KHTML, like Gecko) draw.io/27.0.9 Chrome/134.0.6998.205 Electron/35.4.0 Safari/537.36" version="27.0.9">
  <diagram name="페이지-1" id="ge7ynudYH0SWpXRpJTb-">
    <mxGraphModel dx="4753" dy="2667" grid="1" gridSize="10" guides="1" tooltips="1" connect="1" arrows="1" fold="1" page="1" pageScale="1" pageWidth="827" pageHeight="1169" math="1" shadow="0">
      <root>
        <mxCell id="0" />
        <mxCell id="1" parent="0" />
        <mxCell id="-oPGyq5Cqz7-k8GaQxrX-433" value="" style="group" vertex="1" connectable="0" parent="1">
          <mxGeometry x="194" y="194" width="2094" height="780" as="geometry" />
        </mxCell>
        <mxCell id="-oPGyq5Cqz7-k8GaQxrX-1" value="" style="group;rotation=-166;" vertex="1" connectable="0" parent="-oPGyq5Cqz7-k8GaQxrX-433">
          <mxGeometry x="970.003950546386" y="627.0028827345207" width="140" height="120" as="geometry" />
        </mxCell>
        <mxCell id="-oPGyq5Cqz7-k8GaQxrX-2" value="" style="rounded=0;whiteSpace=wrap;html=1;fillColor=#f8cecc;strokeColor=default;rotation=-166;" vertex="1" parent="-oPGyq5Cqz7-k8GaQxrX-1">
          <mxGeometry x="36" y="15" width="78.75" height="68.57142857142857" as="geometry" />
        </mxCell>
        <mxCell id="-oPGyq5Cqz7-k8GaQxrX-3" value="" style="rounded=0;whiteSpace=wrap;html=1;fillColor=#dae8fc;strokeColor=default;rotation=-166;" vertex="1" parent="-oPGyq5Cqz7-k8GaQxrX-1">
          <mxGeometry x="73" width="26.25" height="17.142857142857142" as="geometry" />
        </mxCell>
        <mxCell id="-oPGyq5Cqz7-k8GaQxrX-4" value="" style="rounded=0;whiteSpace=wrap;html=1;fillColor=#dae8fc;strokeColor=default;rotation=-166;" vertex="1" parent="-oPGyq5Cqz7-k8GaQxrX-1">
          <mxGeometry x="60" y="83" width="8.75" height="17.142857142857142" as="geometry" />
        </mxCell>
        <mxCell id="-oPGyq5Cqz7-k8GaQxrX-5" value="" style="rounded=0;whiteSpace=wrap;html=1;fillColor=#dae8fc;strokeColor=default;rotation=-166;" vertex="1" parent="-oPGyq5Cqz7-k8GaQxrX-1">
          <mxGeometry x="13" y="100" width="96.25" height="8.571428571428571" as="geometry" />
        </mxCell>
        <mxCell id="-oPGyq5Cqz7-k8GaQxrX-6" value="" style="shape=cylinder3;whiteSpace=wrap;html=1;boundedLbl=1;backgroundOutline=1;size=2.875;direction=south;fillColor=#f8cecc;strokeColor=default;rotation=-166;" vertex="1" parent="-oPGyq5Cqz7-k8GaQxrX-1">
          <mxGeometry x="-7" y="77" width="21.875" height="25.71428571428571" as="geometry" />
        </mxCell>
        <mxCell id="-oPGyq5Cqz7-k8GaQxrX-7" value="" style="shape=cylinder3;whiteSpace=wrap;html=1;boundedLbl=1;backgroundOutline=1;size=2.875;direction=south;fillColor=#f8cecc;strokeColor=default;rotation=-166;" vertex="1" parent="-oPGyq5Cqz7-k8GaQxrX-1">
          <mxGeometry x="107" y="105" width="21.875" height="25.71428571428571" as="geometry" />
        </mxCell>
        <mxCell id="-oPGyq5Cqz7-k8GaQxrX-8" value="" style="ellipse;whiteSpace=wrap;html=1;fillColor=#e1d5e7;strokeColor=#9673a6;" vertex="1" parent="-oPGyq5Cqz7-k8GaQxrX-433">
          <mxGeometry x="1164" y="542" width="80" height="75" as="geometry" />
        </mxCell>
        <mxCell id="-oPGyq5Cqz7-k8GaQxrX-9" value="" style="shape=cylinder3;whiteSpace=wrap;html=1;boundedLbl=1;backgroundOutline=1;size=9.481481481481381;fillColor=#d5e8d4;strokeColor=#82b366;" vertex="1" parent="-oPGyq5Cqz7-k8GaQxrX-433">
          <mxGeometry x="1244" y="162" width="140" height="90" as="geometry" />
        </mxCell>
        <mxCell id="-oPGyq5Cqz7-k8GaQxrX-10" value="Goal" style="text;html=1;align=center;verticalAlign=middle;whiteSpace=wrap;rounded=0;fontSize=30;fontColor=#B9E0A5;fontStyle=1" vertex="1" parent="-oPGyq5Cqz7-k8GaQxrX-433">
          <mxGeometry x="1284" y="122" width="76" height="30" as="geometry" />
        </mxCell>
        <mxCell id="-oPGyq5Cqz7-k8GaQxrX-11" value="&lt;font style=&quot;color: rgb(234, 107, 102);&quot;&gt;Agent&lt;/font&gt;" style="text;html=1;align=center;verticalAlign=middle;whiteSpace=wrap;rounded=0;fontSize=30;fontColor=#B9E0A5;fontStyle=1" vertex="1" parent="-oPGyq5Cqz7-k8GaQxrX-433">
          <mxGeometry x="880" y="642" width="90" height="30" as="geometry" />
        </mxCell>
        <mxCell id="-oPGyq5Cqz7-k8GaQxrX-12" value="&lt;font style=&quot;color: rgb(181, 115, 157);&quot;&gt;Hazard&lt;/font&gt;" style="text;html=1;align=center;verticalAlign=middle;whiteSpace=wrap;rounded=0;fontSize=30;fontColor=#B9E0A5;fontStyle=1" vertex="1" parent="-oPGyq5Cqz7-k8GaQxrX-433">
          <mxGeometry x="1184" y="502" width="106" height="30" as="geometry" />
        </mxCell>
        <mxCell id="-oPGyq5Cqz7-k8GaQxrX-13" value="" style="ellipse;whiteSpace=wrap;html=1;fillColor=#e1d5e7;strokeColor=#9673a6;" vertex="1" parent="-oPGyq5Cqz7-k8GaQxrX-433">
          <mxGeometry x="990" y="427" width="80" height="75" as="geometry" />
        </mxCell>
        <mxCell id="-oPGyq5Cqz7-k8GaQxrX-14" value="" style="group;rotation=-150;opacity=23;" vertex="1" connectable="0" parent="-oPGyq5Cqz7-k8GaQxrX-433">
          <mxGeometry x="1059.9960145752998" y="507.00227626853666" width="140" height="120" as="geometry" />
        </mxCell>
        <mxCell id="-oPGyq5Cqz7-k8GaQxrX-15" value="" style="rounded=0;whiteSpace=wrap;html=1;fillColor=#f8cecc;strokeColor=default;rotation=-150;" vertex="1" parent="-oPGyq5Cqz7-k8GaQxrX-14">
          <mxGeometry x="39" y="17" width="78.75" height="68.57142857142857" as="geometry" />
        </mxCell>
        <mxCell id="-oPGyq5Cqz7-k8GaQxrX-16" value="" style="rounded=0;whiteSpace=wrap;html=1;fillColor=#dae8fc;strokeColor=default;rotation=-150;" vertex="1" parent="-oPGyq5Cqz7-k8GaQxrX-14">
          <mxGeometry x="87" y="6" width="26.25" height="17.142857142857142" as="geometry" />
        </mxCell>
        <mxCell id="-oPGyq5Cqz7-k8GaQxrX-17" value="" style="rounded=0;whiteSpace=wrap;html=1;fillColor=#dae8fc;strokeColor=default;rotation=-150;" vertex="1" parent="-oPGyq5Cqz7-k8GaQxrX-14">
          <mxGeometry x="52" y="80" width="8.75" height="17.142857142857142" as="geometry" />
        </mxCell>
        <mxCell id="-oPGyq5Cqz7-k8GaQxrX-18" value="" style="rounded=0;whiteSpace=wrap;html=1;fillColor=#dae8fc;strokeColor=default;rotation=-150;" vertex="1" parent="-oPGyq5Cqz7-k8GaQxrX-14">
          <mxGeometry x="1" y="96" width="96.25" height="8.571428571428571" as="geometry" />
        </mxCell>
        <mxCell id="-oPGyq5Cqz7-k8GaQxrX-19" value="" style="shape=cylinder3;whiteSpace=wrap;html=1;boundedLbl=1;backgroundOutline=1;size=2.875;direction=south;fillColor=#f8cecc;strokeColor=default;rotation=-150;" vertex="1" parent="-oPGyq5Cqz7-k8GaQxrX-14">
          <mxGeometry x="-13" y="58" width="21.875" height="25.71428571428571" as="geometry" />
        </mxCell>
        <mxCell id="-oPGyq5Cqz7-k8GaQxrX-20" value="" style="shape=cylinder3;whiteSpace=wrap;html=1;boundedLbl=1;backgroundOutline=1;size=2.875;direction=south;fillColor=#f8cecc;strokeColor=default;rotation=-150;" vertex="1" parent="-oPGyq5Cqz7-k8GaQxrX-14">
          <mxGeometry x="89" y="116" width="21.875" height="25.71428571428571" as="geometry" />
        </mxCell>
        <mxCell id="-oPGyq5Cqz7-k8GaQxrX-21" value="" style="group;rotation=-165;opacity=23;" vertex="1" connectable="0" parent="-oPGyq5Cqz7-k8GaQxrX-433">
          <mxGeometry x="1150.0017782649106" y="362.0015242270663" width="140" height="120" as="geometry" />
        </mxCell>
        <mxCell id="-oPGyq5Cqz7-k8GaQxrX-22" value="" style="rounded=0;whiteSpace=wrap;html=1;fillColor=#f8cecc;strokeColor=default;rotation=-165;" vertex="1" parent="-oPGyq5Cqz7-k8GaQxrX-21">
          <mxGeometry x="36" y="15" width="78.75" height="68.57142857142857" as="geometry" />
        </mxCell>
        <mxCell id="-oPGyq5Cqz7-k8GaQxrX-23" value="" style="rounded=0;whiteSpace=wrap;html=1;fillColor=#dae8fc;strokeColor=default;rotation=-165;" vertex="1" parent="-oPGyq5Cqz7-k8GaQxrX-21">
          <mxGeometry x="74" width="26.25" height="17.142857142857142" as="geometry" />
        </mxCell>
        <mxCell id="-oPGyq5Cqz7-k8GaQxrX-24" value="" style="rounded=0;whiteSpace=wrap;html=1;fillColor=#dae8fc;strokeColor=default;rotation=-165;" vertex="1" parent="-oPGyq5Cqz7-k8GaQxrX-21">
          <mxGeometry x="60" y="83" width="8.75" height="17.142857142857142" as="geometry" />
        </mxCell>
        <mxCell id="-oPGyq5Cqz7-k8GaQxrX-25" value="" style="rounded=0;whiteSpace=wrap;html=1;fillColor=#dae8fc;strokeColor=default;rotation=-165;" vertex="1" parent="-oPGyq5Cqz7-k8GaQxrX-21">
          <mxGeometry x="12" y="100" width="96.25" height="8.571428571428571" as="geometry" />
        </mxCell>
        <mxCell id="-oPGyq5Cqz7-k8GaQxrX-26" value="" style="shape=cylinder3;whiteSpace=wrap;html=1;boundedLbl=1;backgroundOutline=1;size=2.875;direction=south;fillColor=#f8cecc;strokeColor=default;rotation=-165;" vertex="1" parent="-oPGyq5Cqz7-k8GaQxrX-21">
          <mxGeometry x="-8" y="76" width="21.875" height="25.71428571428571" as="geometry" />
        </mxCell>
        <mxCell id="-oPGyq5Cqz7-k8GaQxrX-27" value="" style="shape=cylinder3;whiteSpace=wrap;html=1;boundedLbl=1;backgroundOutline=1;size=2.875;direction=south;fillColor=#f8cecc;strokeColor=default;rotation=-165;" vertex="1" parent="-oPGyq5Cqz7-k8GaQxrX-21">
          <mxGeometry x="106" y="106" width="21.875" height="25.71428571428571" as="geometry" />
        </mxCell>
        <mxCell id="-oPGyq5Cqz7-k8GaQxrX-28" value="" style="group;rotation=-150;opacity=23;" vertex="1" connectable="0" parent="-oPGyq5Cqz7-k8GaQxrX-433">
          <mxGeometry x="1190.003950546386" y="222.00288273452054" width="140" height="120" as="geometry" />
        </mxCell>
        <mxCell id="-oPGyq5Cqz7-k8GaQxrX-29" value="" style="rounded=0;whiteSpace=wrap;html=1;fillColor=#f8cecc;strokeColor=default;rotation=-150;" vertex="1" parent="-oPGyq5Cqz7-k8GaQxrX-28">
          <mxGeometry x="39" y="17" width="78.75" height="68.57142857142857" as="geometry" />
        </mxCell>
        <mxCell id="-oPGyq5Cqz7-k8GaQxrX-30" value="" style="rounded=0;whiteSpace=wrap;html=1;fillColor=#dae8fc;strokeColor=default;rotation=-150;" vertex="1" parent="-oPGyq5Cqz7-k8GaQxrX-28">
          <mxGeometry x="87" y="6" width="26.25" height="17.142857142857142" as="geometry" />
        </mxCell>
        <mxCell id="-oPGyq5Cqz7-k8GaQxrX-31" value="" style="rounded=0;whiteSpace=wrap;html=1;fillColor=#dae8fc;strokeColor=default;rotation=-150;" vertex="1" parent="-oPGyq5Cqz7-k8GaQxrX-28">
          <mxGeometry x="52" y="80" width="8.75" height="17.142857142857142" as="geometry" />
        </mxCell>
        <mxCell id="-oPGyq5Cqz7-k8GaQxrX-32" value="" style="rounded=0;whiteSpace=wrap;html=1;fillColor=#dae8fc;strokeColor=default;rotation=-150;" vertex="1" parent="-oPGyq5Cqz7-k8GaQxrX-28">
          <mxGeometry x="1" y="96" width="96.25" height="8.571428571428571" as="geometry" />
        </mxCell>
        <mxCell id="-oPGyq5Cqz7-k8GaQxrX-33" value="" style="shape=cylinder3;whiteSpace=wrap;html=1;boundedLbl=1;backgroundOutline=1;size=2.875;direction=south;fillColor=#f8cecc;strokeColor=default;rotation=-150;" vertex="1" parent="-oPGyq5Cqz7-k8GaQxrX-28">
          <mxGeometry x="-13" y="58" width="21.875" height="25.71428571428571" as="geometry" />
        </mxCell>
        <mxCell id="-oPGyq5Cqz7-k8GaQxrX-34" value="" style="shape=cylinder3;whiteSpace=wrap;html=1;boundedLbl=1;backgroundOutline=1;size=2.875;direction=south;fillColor=#f8cecc;strokeColor=default;rotation=-150;" vertex="1" parent="-oPGyq5Cqz7-k8GaQxrX-28">
          <mxGeometry x="89" y="116" width="21.875" height="25.71428571428571" as="geometry" />
        </mxCell>
        <mxCell id="-oPGyq5Cqz7-k8GaQxrX-35" value="" style="curved=1;endArrow=classic;html=1;rounded=0;entryX=0.5;entryY=1;entryDx=0;entryDy=0;exitX=0.5;exitY=0;exitDx=0;exitDy=0;" edge="1" parent="-oPGyq5Cqz7-k8GaQxrX-433" source="-oPGyq5Cqz7-k8GaQxrX-4" target="-oPGyq5Cqz7-k8GaQxrX-30">
          <mxGeometry width="50" height="50" relative="1" as="geometry">
            <mxPoint x="1030" y="732" as="sourcePoint" />
            <mxPoint x="1090" y="432" as="targetPoint" />
            <Array as="points">
              <mxPoint x="1050" y="662" />
              <mxPoint x="1070" y="608" />
              <mxPoint x="1110" y="608" />
              <mxPoint x="1150" y="548" />
              <mxPoint x="1160" y="528" />
              <mxPoint x="1180" y="498" />
              <mxPoint x="1220" y="452" />
              <mxPoint x="1230" y="388" />
              <mxPoint x="1240" y="358" />
              <mxPoint x="1240" y="308" />
            </Array>
          </mxGeometry>
        </mxCell>
        <mxCell id="-oPGyq5Cqz7-k8GaQxrX-36" style="edgeStyle=orthogonalEdgeStyle;rounded=0;orthogonalLoop=1;jettySize=auto;html=1;exitX=0.5;exitY=1;exitDx=0;exitDy=0;" edge="1" parent="-oPGyq5Cqz7-k8GaQxrX-433">
          <mxGeometry relative="1" as="geometry">
            <mxPoint x="1100" y="392" as="sourcePoint" />
            <mxPoint x="1100" y="392" as="targetPoint" />
          </mxGeometry>
        </mxCell>
        <mxCell id="-oPGyq5Cqz7-k8GaQxrX-37" value="&lt;font style=&quot;color: rgb(0, 0, 0);&quot;&gt;Constrained RL&lt;/font&gt;" style="text;html=1;align=center;verticalAlign=middle;whiteSpace=wrap;rounded=0;fontSize=30;fontColor=#B9E0A5;fontStyle=1" vertex="1" parent="-oPGyq5Cqz7-k8GaQxrX-433">
          <mxGeometry x="1003" y="50" width="260" height="30" as="geometry" />
        </mxCell>
        <mxCell id="-oPGyq5Cqz7-k8GaQxrX-38" value="" style="group;rotation=-166;" vertex="1" connectable="0" parent="-oPGyq5Cqz7-k8GaQxrX-433">
          <mxGeometry x="1680.003950546386" y="627.0028827345207" width="140" height="120" as="geometry" />
        </mxCell>
        <mxCell id="-oPGyq5Cqz7-k8GaQxrX-39" value="" style="rounded=0;whiteSpace=wrap;html=1;fillColor=#f8cecc;strokeColor=default;rotation=-166;" vertex="1" parent="-oPGyq5Cqz7-k8GaQxrX-38">
          <mxGeometry x="36" y="15" width="78.75" height="68.57142857142857" as="geometry" />
        </mxCell>
        <mxCell id="-oPGyq5Cqz7-k8GaQxrX-40" value="" style="rounded=0;whiteSpace=wrap;html=1;fillColor=#dae8fc;strokeColor=default;rotation=-166;" vertex="1" parent="-oPGyq5Cqz7-k8GaQxrX-38">
          <mxGeometry x="73" width="26.25" height="17.142857142857142" as="geometry" />
        </mxCell>
        <mxCell id="-oPGyq5Cqz7-k8GaQxrX-41" value="" style="rounded=0;whiteSpace=wrap;html=1;fillColor=#dae8fc;strokeColor=default;rotation=-166;" vertex="1" parent="-oPGyq5Cqz7-k8GaQxrX-38">
          <mxGeometry x="60" y="83" width="8.75" height="17.142857142857142" as="geometry" />
        </mxCell>
        <mxCell id="-oPGyq5Cqz7-k8GaQxrX-42" value="" style="rounded=0;whiteSpace=wrap;html=1;fillColor=#dae8fc;strokeColor=default;rotation=-166;" vertex="1" parent="-oPGyq5Cqz7-k8GaQxrX-38">
          <mxGeometry x="13" y="100" width="96.25" height="8.571428571428571" as="geometry" />
        </mxCell>
        <mxCell id="-oPGyq5Cqz7-k8GaQxrX-43" value="" style="shape=cylinder3;whiteSpace=wrap;html=1;boundedLbl=1;backgroundOutline=1;size=2.875;direction=south;fillColor=#f8cecc;strokeColor=default;rotation=-166;" vertex="1" parent="-oPGyq5Cqz7-k8GaQxrX-38">
          <mxGeometry x="-7" y="77" width="21.875" height="25.71428571428571" as="geometry" />
        </mxCell>
        <mxCell id="-oPGyq5Cqz7-k8GaQxrX-44" value="" style="shape=cylinder3;whiteSpace=wrap;html=1;boundedLbl=1;backgroundOutline=1;size=2.875;direction=south;fillColor=#f8cecc;strokeColor=default;rotation=-166;" vertex="1" parent="-oPGyq5Cqz7-k8GaQxrX-38">
          <mxGeometry x="107" y="105" width="21.875" height="25.71428571428571" as="geometry" />
        </mxCell>
        <mxCell id="-oPGyq5Cqz7-k8GaQxrX-45" value="" style="ellipse;whiteSpace=wrap;html=1;fillColor=#e1d5e7;strokeColor=#9673a6;" vertex="1" parent="-oPGyq5Cqz7-k8GaQxrX-433">
          <mxGeometry x="1874" y="542" width="80" height="75" as="geometry" />
        </mxCell>
        <mxCell id="-oPGyq5Cqz7-k8GaQxrX-46" value="" style="shape=cylinder3;whiteSpace=wrap;html=1;boundedLbl=1;backgroundOutline=1;size=9.481481481481381;fillColor=#d5e8d4;strokeColor=#82b366;" vertex="1" parent="-oPGyq5Cqz7-k8GaQxrX-433">
          <mxGeometry x="1954" y="162" width="140" height="90" as="geometry" />
        </mxCell>
        <mxCell id="-oPGyq5Cqz7-k8GaQxrX-47" value="Goal" style="text;html=1;align=center;verticalAlign=middle;whiteSpace=wrap;rounded=0;fontSize=30;fontColor=#B9E0A5;fontStyle=1" vertex="1" parent="-oPGyq5Cqz7-k8GaQxrX-433">
          <mxGeometry x="1994" y="122" width="76" height="30" as="geometry" />
        </mxCell>
        <mxCell id="-oPGyq5Cqz7-k8GaQxrX-48" value="&lt;font style=&quot;color: rgb(234, 107, 102);&quot;&gt;Agent&lt;/font&gt;" style="text;html=1;align=center;verticalAlign=middle;whiteSpace=wrap;rounded=0;fontSize=30;fontColor=#B9E0A5;fontStyle=1" vertex="1" parent="-oPGyq5Cqz7-k8GaQxrX-433">
          <mxGeometry x="1590" y="642" width="90" height="30" as="geometry" />
        </mxCell>
        <mxCell id="-oPGyq5Cqz7-k8GaQxrX-49" value="&lt;font style=&quot;color: rgb(181, 115, 157);&quot;&gt;Hazard&lt;/font&gt;" style="text;html=1;align=center;verticalAlign=middle;whiteSpace=wrap;rounded=0;fontSize=30;fontColor=#B9E0A5;fontStyle=1" vertex="1" parent="-oPGyq5Cqz7-k8GaQxrX-433">
          <mxGeometry x="1894" y="502" width="106" height="30" as="geometry" />
        </mxCell>
        <mxCell id="-oPGyq5Cqz7-k8GaQxrX-50" value="" style="ellipse;whiteSpace=wrap;html=1;fillColor=#e1d5e7;strokeColor=#9673a6;" vertex="1" parent="-oPGyq5Cqz7-k8GaQxrX-433">
          <mxGeometry x="1700" y="427" width="80" height="75" as="geometry" />
        </mxCell>
        <mxCell id="-oPGyq5Cqz7-k8GaQxrX-51" value="" style="group;rotation=-150;opacity=23;" vertex="1" connectable="0" parent="-oPGyq5Cqz7-k8GaQxrX-433">
          <mxGeometry x="1748.9960145752998" y="490.00227626853655" width="140" height="120" as="geometry" />
        </mxCell>
        <mxCell id="-oPGyq5Cqz7-k8GaQxrX-52" value="" style="rounded=0;whiteSpace=wrap;html=1;fillColor=#f8cecc;strokeColor=default;rotation=-150;" vertex="1" parent="-oPGyq5Cqz7-k8GaQxrX-51">
          <mxGeometry x="39" y="17" width="78.75" height="68.57142857142857" as="geometry" />
        </mxCell>
        <mxCell id="-oPGyq5Cqz7-k8GaQxrX-53" value="" style="rounded=0;whiteSpace=wrap;html=1;fillColor=#dae8fc;strokeColor=default;rotation=-150;" vertex="1" parent="-oPGyq5Cqz7-k8GaQxrX-51">
          <mxGeometry x="87" y="6" width="26.25" height="17.142857142857142" as="geometry" />
        </mxCell>
        <mxCell id="-oPGyq5Cqz7-k8GaQxrX-54" value="" style="rounded=0;whiteSpace=wrap;html=1;fillColor=#dae8fc;strokeColor=default;rotation=-150;" vertex="1" parent="-oPGyq5Cqz7-k8GaQxrX-51">
          <mxGeometry x="52" y="80" width="8.75" height="17.142857142857142" as="geometry" />
        </mxCell>
        <mxCell id="-oPGyq5Cqz7-k8GaQxrX-55" value="" style="rounded=0;whiteSpace=wrap;html=1;fillColor=#dae8fc;strokeColor=default;rotation=-150;" vertex="1" parent="-oPGyq5Cqz7-k8GaQxrX-51">
          <mxGeometry x="1" y="96" width="96.25" height="8.571428571428571" as="geometry" />
        </mxCell>
        <mxCell id="-oPGyq5Cqz7-k8GaQxrX-56" value="" style="shape=cylinder3;whiteSpace=wrap;html=1;boundedLbl=1;backgroundOutline=1;size=2.875;direction=south;fillColor=#f8cecc;strokeColor=default;rotation=-150;" vertex="1" parent="-oPGyq5Cqz7-k8GaQxrX-51">
          <mxGeometry x="-13" y="58" width="21.875" height="25.71428571428571" as="geometry" />
        </mxCell>
        <mxCell id="-oPGyq5Cqz7-k8GaQxrX-57" value="" style="shape=cylinder3;whiteSpace=wrap;html=1;boundedLbl=1;backgroundOutline=1;size=2.875;direction=south;fillColor=#f8cecc;strokeColor=default;rotation=-150;" vertex="1" parent="-oPGyq5Cqz7-k8GaQxrX-51">
          <mxGeometry x="89" y="116" width="21.875" height="25.71428571428571" as="geometry" />
        </mxCell>
        <mxCell id="-oPGyq5Cqz7-k8GaQxrX-58" value="" style="group;rotation=-170;opacity=23;" vertex="1" connectable="0" parent="-oPGyq5Cqz7-k8GaQxrX-433">
          <mxGeometry x="1860.0017782649106" y="362.0015242270663" width="140" height="120" as="geometry" />
        </mxCell>
        <mxCell id="-oPGyq5Cqz7-k8GaQxrX-59" value="" style="rounded=0;whiteSpace=wrap;html=1;fillColor=#f8cecc;strokeColor=default;rotation=-170;" vertex="1" parent="-oPGyq5Cqz7-k8GaQxrX-58">
          <mxGeometry x="35" y="15" width="78.75" height="68.57142857142857" as="geometry" />
        </mxCell>
        <mxCell id="-oPGyq5Cqz7-k8GaQxrX-60" value="" style="rounded=0;whiteSpace=wrap;html=1;fillColor=#dae8fc;strokeColor=default;rotation=-170;" vertex="1" parent="-oPGyq5Cqz7-k8GaQxrX-58">
          <mxGeometry x="69" y="-1" width="26.25" height="17.142857142857142" as="geometry" />
        </mxCell>
        <mxCell id="-oPGyq5Cqz7-k8GaQxrX-61" value="" style="rounded=0;whiteSpace=wrap;html=1;fillColor=#dae8fc;strokeColor=default;rotation=-170;" vertex="1" parent="-oPGyq5Cqz7-k8GaQxrX-58">
          <mxGeometry x="63" y="83" width="8.75" height="17.142857142857142" as="geometry" />
        </mxCell>
        <mxCell id="-oPGyq5Cqz7-k8GaQxrX-62" value="" style="rounded=0;whiteSpace=wrap;html=1;fillColor=#dae8fc;strokeColor=default;rotation=-170;" vertex="1" parent="-oPGyq5Cqz7-k8GaQxrX-58">
          <mxGeometry x="16" y="101" width="96.25" height="8.571428571428571" as="geometry" />
        </mxCell>
        <mxCell id="-oPGyq5Cqz7-k8GaQxrX-63" value="" style="shape=cylinder3;whiteSpace=wrap;html=1;boundedLbl=1;backgroundOutline=1;size=2.875;direction=south;fillColor=#f8cecc;strokeColor=default;rotation=-170;" vertex="1" parent="-oPGyq5Cqz7-k8GaQxrX-58">
          <mxGeometry x="-5" y="82" width="21.875" height="25.71428571428571" as="geometry" />
        </mxCell>
        <mxCell id="-oPGyq5Cqz7-k8GaQxrX-64" value="" style="shape=cylinder3;whiteSpace=wrap;html=1;boundedLbl=1;backgroundOutline=1;size=2.875;direction=south;fillColor=#f8cecc;strokeColor=default;rotation=-170;" vertex="1" parent="-oPGyq5Cqz7-k8GaQxrX-58">
          <mxGeometry x="111" y="102" width="21.875" height="25.71428571428571" as="geometry" />
        </mxCell>
        <mxCell id="-oPGyq5Cqz7-k8GaQxrX-65" value="" style="group;rotation=-150;opacity=23;" vertex="1" connectable="0" parent="-oPGyq5Cqz7-k8GaQxrX-433">
          <mxGeometry x="1900.003950546386" y="222.00288273452054" width="140" height="120" as="geometry" />
        </mxCell>
        <mxCell id="-oPGyq5Cqz7-k8GaQxrX-66" value="" style="rounded=0;whiteSpace=wrap;html=1;fillColor=#f8cecc;strokeColor=default;rotation=-150;" vertex="1" parent="-oPGyq5Cqz7-k8GaQxrX-65">
          <mxGeometry x="39" y="17" width="78.75" height="68.57142857142857" as="geometry" />
        </mxCell>
        <mxCell id="-oPGyq5Cqz7-k8GaQxrX-67" value="" style="rounded=0;whiteSpace=wrap;html=1;fillColor=#dae8fc;strokeColor=default;rotation=-150;" vertex="1" parent="-oPGyq5Cqz7-k8GaQxrX-65">
          <mxGeometry x="87" y="6" width="26.25" height="17.142857142857142" as="geometry" />
        </mxCell>
        <mxCell id="-oPGyq5Cqz7-k8GaQxrX-68" value="" style="rounded=0;whiteSpace=wrap;html=1;fillColor=#dae8fc;strokeColor=default;rotation=-150;" vertex="1" parent="-oPGyq5Cqz7-k8GaQxrX-65">
          <mxGeometry x="52" y="80" width="8.75" height="17.142857142857142" as="geometry" />
        </mxCell>
        <mxCell id="-oPGyq5Cqz7-k8GaQxrX-69" value="" style="rounded=0;whiteSpace=wrap;html=1;fillColor=#dae8fc;strokeColor=default;rotation=-150;" vertex="1" parent="-oPGyq5Cqz7-k8GaQxrX-65">
          <mxGeometry x="1" y="96" width="96.25" height="8.571428571428571" as="geometry" />
        </mxCell>
        <mxCell id="-oPGyq5Cqz7-k8GaQxrX-70" value="" style="shape=cylinder3;whiteSpace=wrap;html=1;boundedLbl=1;backgroundOutline=1;size=2.875;direction=south;fillColor=#f8cecc;strokeColor=default;rotation=-150;" vertex="1" parent="-oPGyq5Cqz7-k8GaQxrX-65">
          <mxGeometry x="-13" y="58" width="21.875" height="25.71428571428571" as="geometry" />
        </mxCell>
        <mxCell id="-oPGyq5Cqz7-k8GaQxrX-71" value="" style="shape=cylinder3;whiteSpace=wrap;html=1;boundedLbl=1;backgroundOutline=1;size=2.875;direction=south;fillColor=#f8cecc;strokeColor=default;rotation=-150;" vertex="1" parent="-oPGyq5Cqz7-k8GaQxrX-65">
          <mxGeometry x="89" y="116" width="21.875" height="25.71428571428571" as="geometry" />
        </mxCell>
        <mxCell id="-oPGyq5Cqz7-k8GaQxrX-72" style="edgeStyle=orthogonalEdgeStyle;rounded=0;orthogonalLoop=1;jettySize=auto;html=1;exitX=0.5;exitY=1;exitDx=0;exitDy=0;" edge="1" parent="-oPGyq5Cqz7-k8GaQxrX-433">
          <mxGeometry relative="1" as="geometry">
            <mxPoint x="1810" y="392" as="sourcePoint" />
            <mxPoint x="1810" y="392" as="targetPoint" />
          </mxGeometry>
        </mxCell>
        <mxCell id="-oPGyq5Cqz7-k8GaQxrX-73" value="&lt;font style=&quot;color: rgb(0, 0, 0);&quot;&gt;State-wise Constrained RL&lt;/font&gt;" style="text;html=1;align=center;verticalAlign=middle;whiteSpace=wrap;rounded=0;fontSize=30;fontColor=#B9E0A5;fontStyle=1" vertex="1" parent="-oPGyq5Cqz7-k8GaQxrX-433">
          <mxGeometry x="1650" y="50" width="386" height="30" as="geometry" />
        </mxCell>
        <mxCell id="-oPGyq5Cqz7-k8GaQxrX-74" value="" style="curved=1;endArrow=classic;html=1;rounded=0;exitX=0.5;exitY=1;exitDx=0;exitDy=0;" edge="1" parent="-oPGyq5Cqz7-k8GaQxrX-433" source="-oPGyq5Cqz7-k8GaQxrX-42">
          <mxGeometry width="50" height="50" relative="1" as="geometry">
            <mxPoint x="1819" y="540" as="sourcePoint" />
            <mxPoint x="2004" y="229" as="targetPoint" />
            <Array as="points">
              <mxPoint x="1759" y="630" />
              <mxPoint x="1809" y="580" />
              <mxPoint x="1859" y="490" />
              <mxPoint x="1889" y="480" />
              <mxPoint x="1909" y="480" />
              <mxPoint x="1929" y="470" />
              <mxPoint x="1929" y="410" />
              <mxPoint x="1939" y="370" />
              <mxPoint x="1939" y="330" />
            </Array>
          </mxGeometry>
        </mxCell>
        <mxCell id="-oPGyq5Cqz7-k8GaQxrX-370" value="" style="group;rotation=-135;" vertex="1" connectable="0" parent="-oPGyq5Cqz7-k8GaQxrX-433">
          <mxGeometry x="90.00395054638602" y="612.0028827345207" width="140" height="120" as="geometry" />
        </mxCell>
        <mxCell id="-oPGyq5Cqz7-k8GaQxrX-371" value="" style="rounded=0;whiteSpace=wrap;html=1;fillColor=#f8cecc;strokeColor=default;rotation=-135;" vertex="1" parent="-oPGyq5Cqz7-k8GaQxrX-370">
          <mxGeometry x="41" y="19" width="78.75" height="68.57142857142857" as="geometry" />
        </mxCell>
        <mxCell id="-oPGyq5Cqz7-k8GaQxrX-372" value="" style="rounded=0;whiteSpace=wrap;html=1;fillColor=#dae8fc;strokeColor=default;rotation=-135;" vertex="1" parent="-oPGyq5Cqz7-k8GaQxrX-370">
          <mxGeometry x="97" y="15" width="26.25" height="17.142857142857142" as="geometry" />
        </mxCell>
        <mxCell id="-oPGyq5Cqz7-k8GaQxrX-373" value="" style="rounded=0;whiteSpace=wrap;html=1;fillColor=#dae8fc;strokeColor=default;rotation=-135;" vertex="1" parent="-oPGyq5Cqz7-k8GaQxrX-370">
          <mxGeometry x="45" y="75" width="8.75" height="17.142857142857142" as="geometry" />
        </mxCell>
        <mxCell id="-oPGyq5Cqz7-k8GaQxrX-374" value="" style="rounded=0;whiteSpace=wrap;html=1;fillColor=#dae8fc;strokeColor=default;rotation=-135;" vertex="1" parent="-oPGyq5Cqz7-k8GaQxrX-370">
          <mxGeometry x="-9" y="89" width="96.25" height="8.571428571428571" as="geometry" />
        </mxCell>
        <mxCell id="-oPGyq5Cqz7-k8GaQxrX-375" value="" style="shape=cylinder3;whiteSpace=wrap;html=1;boundedLbl=1;backgroundOutline=1;size=2.875;direction=south;fillColor=#f8cecc;strokeColor=default;rotation=-135;" vertex="1" parent="-oPGyq5Cqz7-k8GaQxrX-370">
          <mxGeometry x="-13" y="39" width="21.875" height="25.71428571428571" as="geometry" />
        </mxCell>
        <mxCell id="-oPGyq5Cqz7-k8GaQxrX-376" value="" style="shape=cylinder3;whiteSpace=wrap;html=1;boundedLbl=1;backgroundOutline=1;size=2.875;direction=south;fillColor=#f8cecc;strokeColor=default;rotation=-135;" vertex="1" parent="-oPGyq5Cqz7-k8GaQxrX-370">
          <mxGeometry x="71" y="121" width="21.875" height="25.71428571428571" as="geometry" />
        </mxCell>
        <mxCell id="-oPGyq5Cqz7-k8GaQxrX-377" value="" style="ellipse;whiteSpace=wrap;html=1;fillColor=#e1d5e7;strokeColor=#9673a6;" vertex="1" parent="-oPGyq5Cqz7-k8GaQxrX-433">
          <mxGeometry x="284" y="527" width="80" height="75" as="geometry" />
        </mxCell>
        <mxCell id="-oPGyq5Cqz7-k8GaQxrX-378" value="" style="shape=cylinder3;whiteSpace=wrap;html=1;boundedLbl=1;backgroundOutline=1;size=9.481481481481381;fillColor=#d5e8d4;strokeColor=#82b366;" vertex="1" parent="-oPGyq5Cqz7-k8GaQxrX-433">
          <mxGeometry x="364" y="147" width="140" height="90" as="geometry" />
        </mxCell>
        <mxCell id="-oPGyq5Cqz7-k8GaQxrX-379" value="Goal" style="text;html=1;align=center;verticalAlign=middle;whiteSpace=wrap;rounded=0;fontSize=30;fontColor=#B9E0A5;fontStyle=1" vertex="1" parent="-oPGyq5Cqz7-k8GaQxrX-433">
          <mxGeometry x="404" y="107" width="76" height="53" as="geometry" />
        </mxCell>
        <mxCell id="-oPGyq5Cqz7-k8GaQxrX-380" value="&lt;font style=&quot;color: rgb(234, 107, 102);&quot;&gt;Agent&lt;/font&gt;" style="text;html=1;align=center;verticalAlign=middle;whiteSpace=wrap;rounded=0;fontSize=30;fontColor=#B9E0A5;fontStyle=1" vertex="1" parent="-oPGyq5Cqz7-k8GaQxrX-433">
          <mxGeometry y="627" width="90" height="30" as="geometry" />
        </mxCell>
        <mxCell id="-oPGyq5Cqz7-k8GaQxrX-381" value="&lt;font style=&quot;color: rgb(181, 115, 157);&quot;&gt;Hazard&lt;/font&gt;" style="text;html=1;align=center;verticalAlign=middle;whiteSpace=wrap;rounded=0;fontSize=30;fontColor=#B9E0A5;fontStyle=1" vertex="1" parent="-oPGyq5Cqz7-k8GaQxrX-433">
          <mxGeometry x="304" y="487" width="106" height="30" as="geometry" />
        </mxCell>
        <mxCell id="-oPGyq5Cqz7-k8GaQxrX-382" value="" style="ellipse;whiteSpace=wrap;html=1;fillColor=#e1d5e7;strokeColor=#9673a6;" vertex="1" parent="-oPGyq5Cqz7-k8GaQxrX-433">
          <mxGeometry x="110" y="412" width="80" height="75" as="geometry" />
        </mxCell>
        <mxCell id="-oPGyq5Cqz7-k8GaQxrX-383" value="" style="group;rotation=-150;opacity=23;" vertex="1" connectable="0" parent="-oPGyq5Cqz7-k8GaQxrX-433">
          <mxGeometry x="209.9960145752998" y="503.00227626853666" width="140" height="120" as="geometry" />
        </mxCell>
        <mxCell id="-oPGyq5Cqz7-k8GaQxrX-384" value="" style="rounded=0;whiteSpace=wrap;html=1;fillColor=#f8cecc;strokeColor=default;rotation=-150;" vertex="1" parent="-oPGyq5Cqz7-k8GaQxrX-383">
          <mxGeometry x="39" y="17" width="78.75" height="68.57142857142857" as="geometry" />
        </mxCell>
        <mxCell id="-oPGyq5Cqz7-k8GaQxrX-385" value="" style="rounded=0;whiteSpace=wrap;html=1;fillColor=#dae8fc;strokeColor=default;rotation=-150;" vertex="1" parent="-oPGyq5Cqz7-k8GaQxrX-383">
          <mxGeometry x="87" y="6" width="26.25" height="17.142857142857142" as="geometry" />
        </mxCell>
        <mxCell id="-oPGyq5Cqz7-k8GaQxrX-386" value="" style="rounded=0;whiteSpace=wrap;html=1;fillColor=#dae8fc;strokeColor=default;rotation=-150;" vertex="1" parent="-oPGyq5Cqz7-k8GaQxrX-383">
          <mxGeometry x="52" y="80" width="8.75" height="17.142857142857142" as="geometry" />
        </mxCell>
        <mxCell id="-oPGyq5Cqz7-k8GaQxrX-387" value="" style="rounded=0;whiteSpace=wrap;html=1;fillColor=#dae8fc;strokeColor=default;rotation=-150;" vertex="1" parent="-oPGyq5Cqz7-k8GaQxrX-383">
          <mxGeometry x="1" y="96" width="96.25" height="8.571428571428571" as="geometry" />
        </mxCell>
        <mxCell id="-oPGyq5Cqz7-k8GaQxrX-388" value="" style="shape=cylinder3;whiteSpace=wrap;html=1;boundedLbl=1;backgroundOutline=1;size=2.875;direction=south;fillColor=#f8cecc;strokeColor=default;rotation=-150;" vertex="1" parent="-oPGyq5Cqz7-k8GaQxrX-383">
          <mxGeometry x="-13" y="58" width="21.875" height="25.71428571428571" as="geometry" />
        </mxCell>
        <mxCell id="-oPGyq5Cqz7-k8GaQxrX-389" value="" style="shape=cylinder3;whiteSpace=wrap;html=1;boundedLbl=1;backgroundOutline=1;size=2.875;direction=south;fillColor=#f8cecc;strokeColor=default;rotation=-150;" vertex="1" parent="-oPGyq5Cqz7-k8GaQxrX-383">
          <mxGeometry x="89" y="116" width="21.875" height="25.71428571428571" as="geometry" />
        </mxCell>
        <mxCell id="-oPGyq5Cqz7-k8GaQxrX-390" value="" style="group;rotation=-165;opacity=23;" vertex="1" connectable="0" parent="-oPGyq5Cqz7-k8GaQxrX-433">
          <mxGeometry x="270.0017782649106" y="347.0015242270663" width="140" height="120" as="geometry" />
        </mxCell>
        <mxCell id="-oPGyq5Cqz7-k8GaQxrX-391" value="" style="rounded=0;whiteSpace=wrap;html=1;fillColor=#f8cecc;strokeColor=default;rotation=-165;" vertex="1" parent="-oPGyq5Cqz7-k8GaQxrX-390">
          <mxGeometry x="36" y="15" width="78.75" height="68.57142857142857" as="geometry" />
        </mxCell>
        <mxCell id="-oPGyq5Cqz7-k8GaQxrX-392" value="" style="rounded=0;whiteSpace=wrap;html=1;fillColor=#dae8fc;strokeColor=default;rotation=-165;" vertex="1" parent="-oPGyq5Cqz7-k8GaQxrX-390">
          <mxGeometry x="74" width="26.25" height="17.142857142857142" as="geometry" />
        </mxCell>
        <mxCell id="-oPGyq5Cqz7-k8GaQxrX-393" value="" style="rounded=0;whiteSpace=wrap;html=1;fillColor=#dae8fc;strokeColor=default;rotation=-165;" vertex="1" parent="-oPGyq5Cqz7-k8GaQxrX-390">
          <mxGeometry x="60" y="83" width="8.75" height="17.142857142857142" as="geometry" />
        </mxCell>
        <mxCell id="-oPGyq5Cqz7-k8GaQxrX-394" value="" style="rounded=0;whiteSpace=wrap;html=1;fillColor=#dae8fc;strokeColor=default;rotation=-165;" vertex="1" parent="-oPGyq5Cqz7-k8GaQxrX-390">
          <mxGeometry x="12" y="100" width="96.25" height="8.571428571428571" as="geometry" />
        </mxCell>
        <mxCell id="-oPGyq5Cqz7-k8GaQxrX-395" value="" style="shape=cylinder3;whiteSpace=wrap;html=1;boundedLbl=1;backgroundOutline=1;size=2.875;direction=south;fillColor=#f8cecc;strokeColor=default;rotation=-165;" vertex="1" parent="-oPGyq5Cqz7-k8GaQxrX-390">
          <mxGeometry x="-8" y="76" width="21.875" height="25.71428571428571" as="geometry" />
        </mxCell>
        <mxCell id="-oPGyq5Cqz7-k8GaQxrX-396" value="" style="shape=cylinder3;whiteSpace=wrap;html=1;boundedLbl=1;backgroundOutline=1;size=2.875;direction=south;fillColor=#f8cecc;strokeColor=default;rotation=-165;" vertex="1" parent="-oPGyq5Cqz7-k8GaQxrX-390">
          <mxGeometry x="106" y="106" width="21.875" height="25.71428571428571" as="geometry" />
        </mxCell>
        <mxCell id="-oPGyq5Cqz7-k8GaQxrX-397" value="" style="group;rotation=-150;opacity=23;" vertex="1" connectable="0" parent="-oPGyq5Cqz7-k8GaQxrX-433">
          <mxGeometry x="310.003950546386" y="207.00288273452043" width="140" height="120" as="geometry" />
        </mxCell>
        <mxCell id="-oPGyq5Cqz7-k8GaQxrX-398" value="" style="rounded=0;whiteSpace=wrap;html=1;fillColor=#f8cecc;strokeColor=default;rotation=-150;" vertex="1" parent="-oPGyq5Cqz7-k8GaQxrX-397">
          <mxGeometry x="39" y="17" width="78.75" height="68.57142857142857" as="geometry" />
        </mxCell>
        <mxCell id="-oPGyq5Cqz7-k8GaQxrX-399" value="" style="rounded=0;whiteSpace=wrap;html=1;fillColor=#dae8fc;strokeColor=default;rotation=-150;" vertex="1" parent="-oPGyq5Cqz7-k8GaQxrX-397">
          <mxGeometry x="87" y="6" width="26.25" height="17.142857142857142" as="geometry" />
        </mxCell>
        <mxCell id="-oPGyq5Cqz7-k8GaQxrX-400" value="" style="rounded=0;whiteSpace=wrap;html=1;fillColor=#dae8fc;strokeColor=default;rotation=-150;" vertex="1" parent="-oPGyq5Cqz7-k8GaQxrX-397">
          <mxGeometry x="52" y="80" width="8.75" height="17.142857142857142" as="geometry" />
        </mxCell>
        <mxCell id="-oPGyq5Cqz7-k8GaQxrX-401" value="" style="rounded=0;whiteSpace=wrap;html=1;fillColor=#dae8fc;strokeColor=default;rotation=-150;" vertex="1" parent="-oPGyq5Cqz7-k8GaQxrX-397">
          <mxGeometry x="1" y="96" width="96.25" height="8.571428571428571" as="geometry" />
        </mxCell>
        <mxCell id="-oPGyq5Cqz7-k8GaQxrX-402" value="" style="shape=cylinder3;whiteSpace=wrap;html=1;boundedLbl=1;backgroundOutline=1;size=2.875;direction=south;fillColor=#f8cecc;strokeColor=default;rotation=-150;" vertex="1" parent="-oPGyq5Cqz7-k8GaQxrX-397">
          <mxGeometry x="-13" y="58" width="21.875" height="25.71428571428571" as="geometry" />
        </mxCell>
        <mxCell id="-oPGyq5Cqz7-k8GaQxrX-403" value="" style="shape=cylinder3;whiteSpace=wrap;html=1;boundedLbl=1;backgroundOutline=1;size=2.875;direction=south;fillColor=#f8cecc;strokeColor=default;rotation=-150;" vertex="1" parent="-oPGyq5Cqz7-k8GaQxrX-397">
          <mxGeometry x="89" y="116" width="21.875" height="25.71428571428571" as="geometry" />
        </mxCell>
        <mxCell id="-oPGyq5Cqz7-k8GaQxrX-404" value="" style="group;rotation=-130;" vertex="1" connectable="0" parent="-oPGyq5Cqz7-k8GaQxrX-433">
          <mxGeometry x="349.9960145752998" y="627.0022762685367" width="140" height="120" as="geometry" />
        </mxCell>
        <mxCell id="-oPGyq5Cqz7-k8GaQxrX-405" value="" style="rounded=0;whiteSpace=wrap;html=1;fillColor=#f8cecc;strokeColor=default;rotation=-130;" vertex="1" parent="-oPGyq5Cqz7-k8GaQxrX-404">
          <mxGeometry x="41" y="20" width="78.75" height="68.57142857142857" as="geometry" />
        </mxCell>
        <mxCell id="-oPGyq5Cqz7-k8GaQxrX-406" value="" style="rounded=0;whiteSpace=wrap;html=1;fillColor=#dae8fc;strokeColor=default;rotation=-130;" vertex="1" parent="-oPGyq5Cqz7-k8GaQxrX-404">
          <mxGeometry x="100" y="20" width="26.25" height="17.142857142857142" as="geometry" />
        </mxCell>
        <mxCell id="-oPGyq5Cqz7-k8GaQxrX-407" value="" style="rounded=0;whiteSpace=wrap;html=1;fillColor=#dae8fc;strokeColor=default;rotation=-130;" vertex="1" parent="-oPGyq5Cqz7-k8GaQxrX-404">
          <mxGeometry x="43" y="74" width="8.75" height="17.142857142857142" as="geometry" />
        </mxCell>
        <mxCell id="-oPGyq5Cqz7-k8GaQxrX-408" value="" style="rounded=0;whiteSpace=wrap;html=1;fillColor=#dae8fc;strokeColor=default;rotation=-130;" vertex="1" parent="-oPGyq5Cqz7-k8GaQxrX-404">
          <mxGeometry x="-12" y="86" width="96.25" height="8.571428571428571" as="geometry" />
        </mxCell>
        <mxCell id="-oPGyq5Cqz7-k8GaQxrX-409" value="" style="shape=cylinder3;whiteSpace=wrap;html=1;boundedLbl=1;backgroundOutline=1;size=2.875;direction=south;fillColor=#f8cecc;strokeColor=default;rotation=-130;" vertex="1" parent="-oPGyq5Cqz7-k8GaQxrX-404">
          <mxGeometry x="-12" y="33" width="21.875" height="25.71428571428571" as="geometry" />
        </mxCell>
        <mxCell id="-oPGyq5Cqz7-k8GaQxrX-410" value="" style="shape=cylinder3;whiteSpace=wrap;html=1;boundedLbl=1;backgroundOutline=1;size=2.875;direction=south;fillColor=#f8cecc;strokeColor=default;rotation=-130;" vertex="1" parent="-oPGyq5Cqz7-k8GaQxrX-404">
          <mxGeometry x="64" y="121" width="21.875" height="25.71428571428571" as="geometry" />
        </mxCell>
        <mxCell id="-oPGyq5Cqz7-k8GaQxrX-411" value="" style="group;rotation=-170;" vertex="1" connectable="0" parent="-oPGyq5Cqz7-k8GaQxrX-433">
          <mxGeometry x="480.9977992651966" y="427.0003675995208" width="140" height="120" as="geometry" />
        </mxCell>
        <mxCell id="-oPGyq5Cqz7-k8GaQxrX-412" value="" style="rounded=0;whiteSpace=wrap;html=1;fillColor=#f8cecc;strokeColor=default;rotation=-170;" vertex="1" parent="-oPGyq5Cqz7-k8GaQxrX-411">
          <mxGeometry x="35" y="15" width="78.75" height="68.57142857142857" as="geometry" />
        </mxCell>
        <mxCell id="-oPGyq5Cqz7-k8GaQxrX-413" value="" style="rounded=0;whiteSpace=wrap;html=1;fillColor=#dae8fc;strokeColor=default;rotation=-170;" vertex="1" parent="-oPGyq5Cqz7-k8GaQxrX-411">
          <mxGeometry x="70" width="26.25" height="17.142857142857142" as="geometry" />
        </mxCell>
        <mxCell id="-oPGyq5Cqz7-k8GaQxrX-414" value="" style="rounded=0;whiteSpace=wrap;html=1;fillColor=#dae8fc;strokeColor=default;rotation=-170;" vertex="1" parent="-oPGyq5Cqz7-k8GaQxrX-411">
          <mxGeometry x="62" y="83" width="8.75" height="17.142857142857142" as="geometry" />
        </mxCell>
        <mxCell id="-oPGyq5Cqz7-k8GaQxrX-415" value="" style="rounded=0;whiteSpace=wrap;html=1;fillColor=#dae8fc;strokeColor=default;rotation=-170;" vertex="1" parent="-oPGyq5Cqz7-k8GaQxrX-411">
          <mxGeometry x="15" y="101" width="96.25" height="8.571428571428571" as="geometry" />
        </mxCell>
        <mxCell id="-oPGyq5Cqz7-k8GaQxrX-416" value="" style="shape=cylinder3;whiteSpace=wrap;html=1;boundedLbl=1;backgroundOutline=1;size=2.875;direction=south;fillColor=#f8cecc;strokeColor=default;rotation=-170;" vertex="1" parent="-oPGyq5Cqz7-k8GaQxrX-411">
          <mxGeometry x="-4" y="82" width="21.875" height="25.71428571428571" as="geometry" />
        </mxCell>
        <mxCell id="-oPGyq5Cqz7-k8GaQxrX-417" value="" style="shape=cylinder3;whiteSpace=wrap;html=1;boundedLbl=1;backgroundOutline=1;size=2.875;direction=south;fillColor=#f8cecc;strokeColor=default;rotation=-170;" vertex="1" parent="-oPGyq5Cqz7-k8GaQxrX-411">
          <mxGeometry x="110" y="101" width="21.875" height="25.71428571428571" as="geometry" />
        </mxCell>
        <mxCell id="-oPGyq5Cqz7-k8GaQxrX-418" value="" style="group;rotation=-210;" vertex="1" connectable="0" parent="-oPGyq5Cqz7-k8GaQxrX-433">
          <mxGeometry x="479.99543337087016" y="227.00383761741773" width="140" height="120" as="geometry" />
        </mxCell>
        <mxCell id="-oPGyq5Cqz7-k8GaQxrX-419" value="" style="rounded=0;whiteSpace=wrap;html=1;fillColor=#f8cecc;strokeColor=default;rotation=-210;" vertex="1" parent="-oPGyq5Cqz7-k8GaQxrX-418">
          <mxGeometry x="27" y="15" width="78.75" height="68.57142857142857" as="geometry" />
        </mxCell>
        <mxCell id="-oPGyq5Cqz7-k8GaQxrX-420" value="" style="rounded=0;whiteSpace=wrap;html=1;fillColor=#dae8fc;strokeColor=default;rotation=-210;" vertex="1" parent="-oPGyq5Cqz7-k8GaQxrX-418">
          <mxGeometry x="34" y="3" width="26.25" height="17.142857142857142" as="geometry" />
        </mxCell>
        <mxCell id="-oPGyq5Cqz7-k8GaQxrX-421" value="" style="rounded=0;whiteSpace=wrap;html=1;fillColor=#dae8fc;strokeColor=default;rotation=-210;" vertex="1" parent="-oPGyq5Cqz7-k8GaQxrX-418">
          <mxGeometry x="84" y="78" width="8.75" height="17.142857142857142" as="geometry" />
        </mxCell>
        <mxCell id="-oPGyq5Cqz7-k8GaQxrX-422" value="" style="rounded=0;whiteSpace=wrap;html=1;fillColor=#dae8fc;strokeColor=default;rotation=-210;" vertex="1" parent="-oPGyq5Cqz7-k8GaQxrX-418">
          <mxGeometry x="46" y="95" width="96.25" height="8.571428571428571" as="geometry" />
        </mxCell>
        <mxCell id="-oPGyq5Cqz7-k8GaQxrX-423" value="" style="shape=cylinder3;whiteSpace=wrap;html=1;boundedLbl=1;backgroundOutline=1;size=2.875;direction=south;fillColor=#f8cecc;strokeColor=default;rotation=-210;" vertex="1" parent="-oPGyq5Cqz7-k8GaQxrX-418">
          <mxGeometry x="33" y="114" width="21.875" height="25.71428571428571" as="geometry" />
        </mxCell>
        <mxCell id="-oPGyq5Cqz7-k8GaQxrX-424" value="" style="shape=cylinder3;whiteSpace=wrap;html=1;boundedLbl=1;backgroundOutline=1;size=2.875;direction=south;fillColor=#f8cecc;strokeColor=default;rotation=-210;" vertex="1" parent="-oPGyq5Cqz7-k8GaQxrX-418">
          <mxGeometry x="133" y="55" width="21.875" height="25.71428571428571" as="geometry" />
        </mxCell>
        <mxCell id="-oPGyq5Cqz7-k8GaQxrX-425" value="" style="curved=1;endArrow=classic;html=1;rounded=0;exitX=0.5;exitY=1;exitDx=0;exitDy=0;entryX=0.5;entryY=1;entryDx=0;entryDy=0;" edge="1" parent="-oPGyq5Cqz7-k8GaQxrX-433" source="-oPGyq5Cqz7-k8GaQxrX-408" target="-oPGyq5Cqz7-k8GaQxrX-420">
          <mxGeometry width="50" height="50" relative="1" as="geometry">
            <mxPoint x="504" y="637" as="sourcePoint" />
            <mxPoint x="554" y="587" as="targetPoint" />
            <Array as="points">
              <mxPoint x="490" y="637" />
              <mxPoint x="540" y="577" />
              <mxPoint x="560" y="437" />
              <mxPoint x="570" y="387" />
              <mxPoint x="590" y="337" />
            </Array>
          </mxGeometry>
        </mxCell>
        <mxCell id="-oPGyq5Cqz7-k8GaQxrX-426" value="`\alpha=3`" style="text;html=1;align=center;verticalAlign=middle;whiteSpace=wrap;rounded=0;fontSize=30;" vertex="1" parent="-oPGyq5Cqz7-k8GaQxrX-433">
          <mxGeometry x="170" y="347" width="100" height="30" as="geometry" />
        </mxCell>
        <mxCell id="-oPGyq5Cqz7-k8GaQxrX-427" style="edgeStyle=orthogonalEdgeStyle;rounded=0;orthogonalLoop=1;jettySize=auto;html=1;exitX=0.5;exitY=1;exitDx=0;exitDy=0;" edge="1" parent="-oPGyq5Cqz7-k8GaQxrX-433" source="-oPGyq5Cqz7-k8GaQxrX-426" target="-oPGyq5Cqz7-k8GaQxrX-426">
          <mxGeometry relative="1" as="geometry" />
        </mxCell>
        <mxCell id="-oPGyq5Cqz7-k8GaQxrX-428" value="`\alpha=12`" style="text;html=1;align=center;verticalAlign=middle;whiteSpace=wrap;rounded=0;fontSize=30;" vertex="1" parent="-oPGyq5Cqz7-k8GaQxrX-433">
          <mxGeometry x="547" y="612" width="120" height="30" as="geometry" />
        </mxCell>
        <mxCell id="-oPGyq5Cqz7-k8GaQxrX-429" value="&lt;font style=&quot;color: rgb(0, 0, 0);&quot;&gt;RL&lt;/font&gt;" style="text;html=1;align=center;verticalAlign=middle;whiteSpace=wrap;rounded=0;fontSize=30;fontColor=#B9E0A5;fontStyle=1" vertex="1" parent="-oPGyq5Cqz7-k8GaQxrX-433">
          <mxGeometry x="274" y="50" width="76" height="30" as="geometry" />
        </mxCell>
        <mxCell id="-oPGyq5Cqz7-k8GaQxrX-430" value="" style="curved=1;endArrow=classic;html=1;rounded=0;exitX=0.5;exitY=1;exitDx=0;exitDy=0;entryX=0.5;entryY=1;entryDx=0;entryDy=0;" edge="1" parent="-oPGyq5Cqz7-k8GaQxrX-433" source="-oPGyq5Cqz7-k8GaQxrX-374" target="-oPGyq5Cqz7-k8GaQxrX-399">
          <mxGeometry width="50" height="50" relative="1" as="geometry">
            <mxPoint x="80" y="473" as="sourcePoint" />
            <mxPoint x="130" y="423" as="targetPoint" />
            <Array as="points">
              <mxPoint x="230" y="613" />
              <mxPoint x="270" y="593" />
              <mxPoint x="280" y="563" />
              <mxPoint x="330" y="493" />
              <mxPoint x="330" y="443" />
              <mxPoint x="360" y="363" />
              <mxPoint x="350" y="333" />
              <mxPoint x="370" y="283" />
            </Array>
          </mxGeometry>
        </mxCell>
        <mxCell id="-oPGyq5Cqz7-k8GaQxrX-431" value="" style="endArrow=none;html=1;rounded=0;strokeWidth=10;" edge="1" parent="-oPGyq5Cqz7-k8GaQxrX-433">
          <mxGeometry width="50" height="50" relative="1" as="geometry">
            <mxPoint x="790" y="780" as="sourcePoint" />
            <mxPoint x="790" y="10" as="targetPoint" />
          </mxGeometry>
        </mxCell>
        <mxCell id="-oPGyq5Cqz7-k8GaQxrX-432" value="" style="endArrow=none;html=1;rounded=0;strokeWidth=10;" edge="1" parent="-oPGyq5Cqz7-k8GaQxrX-433">
          <mxGeometry width="50" height="50" relative="1" as="geometry">
            <mxPoint x="1510" y="770" as="sourcePoint" />
            <mxPoint x="1510" as="targetPoint" />
          </mxGeometry>
        </mxCell>
      </root>
    </mxGraphModel>
  </diagram>
</mxfile>
